<!--?xml version="1.0" standalone="no"?-->
              <svg id="sw-js-blob-svg" viewBox="0 0 100 100" xmlns="http://www.w3.org/2000/svg" version="1.1">
                    <defs> 
                        <linearGradient id="sw-gradient" x1="0" x2="1" y1="1" y2="0">
                            <stop id="stop1" stop-color="rgba(46, 204, 113, 1)" offset="0%"></stop>
                            <stop id="stop2" stop-color="rgba(36, 113, 163, 1)" offset="100%"></stop>
                        </linearGradient>
                    </defs>
                <path fill="url(#sw-gradient)" d="M22.3,-39.6C28,-35.3,31.1,-27.5,35.1,-20.3C39.1,-13.2,44,-6.6,44.7,0.4C45.5,7.4,42,14.9,37.3,20.7C32.5,26.6,26.4,30.9,20,34.9C13.5,39,6.8,42.8,0,42.7C-6.7,42.7,-13.5,38.9,-19.6,34.6C-25.6,30.4,-31,25.7,-33.9,19.9C-36.8,14,-37.3,7,-37.3,0C-37.3,-7,-36.9,-14,-34.3,-20.5C-31.8,-27,-27.1,-32.9,-21,-37.1C-15,-41.3,-7.5,-43.7,0.4,-44.4C8.3,-45.1,16.6,-44,22.3,-39.6Z" width="100%" height="100%" transform="translate(50 50)" style="transition: all 0.3s ease 0s;" stroke-width="0"></path>
              </svg>