<svg xmlns="http://www.w3.org/2000/svg" version="1.1" xmlns:xlink="http://www.w3.org/1999/xlink" xmlns:svgjs="http://svgjs.dev/svgjs" viewBox="0 0 1422 800"><circle r="11.5" cx="919" cy="665" fill="hsl(119, 75%, 34%)" opacity="0.29"></circle><circle r="14.5" cx="470" cy="253" fill="hsl(167, 75%, 34%)" opacity="0.91"></circle><circle r="8" cx="890" cy="23" fill="hsl(59, 75%, 34%)" opacity="0.50"></circle><circle r="10.5" cx="1394" cy="528" fill="hsl(118, 75%, 34%)" opacity="0.22"></circle><circle r="14" cx="120" cy="406" fill="hsl(202, 75%, 34%)" opacity="0.71"></circle><circle r="22" cx="350" cy="740" fill="hsl(179, 75%, 34%)" opacity="0.36"></circle><circle r="11" cx="111" cy="241" fill="hsl(204, 75%, 34%)" opacity="0.25"></circle><circle r="15.5" cx="360" cy="570" fill="hsl(177, 75%, 34%)" opacity="0.89"></circle><circle r="9.5" cx="631" cy="497" fill="hsl(140, 75%, 34%)" opacity="0.35"></circle><circle r="18" cx="451" cy="146" fill="hsl(150, 75%, 34%)" opacity="0.87"></circle><circle r="16.5" cx="1194" cy="559" fill="hsl(183, 75%, 34%)" opacity="0.91"></circle><circle r="10" cx="553" cy="317" fill="hsl(157, 75%, 34%)" opacity="0.47"></circle><circle r="10.5" cx="364" cy="429" fill="hsl(177, 75%, 34%)" opacity="0.55"></circle><circle r="23" cx="29" cy="664" fill="hsl(209, 75%, 34%)" opacity="0.42"></circle><circle r="10.5" cx="923" cy="526" fill="hsl(119, 75%, 34%)" opacity="0.77"></circle><circle r="16.5" cx="1102" cy="616" fill="hsl(176, 75%, 34%)" opacity="0.59"></circle><circle r="5" cx="931" cy="79" fill="hsl(72, 75%, 34%)" opacity="0.71"></circle><circle r="10" cx="1232" cy="644" fill="hsl(177, 75%, 34%)" opacity="0.38"></circle><circle r="14" cx="802" cy="186" fill="hsl(107, 75%, 34%)" opacity="0.99"></circle><circle r="12.5" cx="969" cy="153" fill="hsl(111, 75%, 34%)" opacity="0.95"></circle><circle r="13.5" cx="183" cy="317" fill="hsl(194, 75%, 34%)" opacity="0.76"></circle><circle r="15" cx="538" cy="256" fill="hsl(157, 75%, 34%)" opacity="0.44"></circle><circle r="14" cx="1119" cy="526" fill="hsl(180, 75%, 34%)" opacity="0.45"></circle><circle r="16" cx="345" cy="306" fill="hsl(179, 75%, 34%)" opacity="0.63"></circle><circle r="8.5" cx="638" cy="60" fill="hsl(75, 75%, 34%)" opacity="0.43"></circle><circle r="16" cx="825" cy="249" fill="hsl(106, 75%, 34%)" opacity="0.14"></circle><circle r="16" cx="1195" cy="715" fill="hsl(183, 75%, 34%)" opacity="0.97"></circle><circle r="13" cx="273" cy="450" fill="hsl(184, 75%, 34%)" opacity="0.69"></circle><circle r="13" cx="1201" cy="505" fill="hsl(181, 75%, 34%)" opacity="0.11"></circle><circle r="14.5" cx="170" cy="183" fill="hsl(196, 75%, 34%)" opacity="0.22"></circle><circle r="7" cx="560" cy="350" fill="hsl(154, 75%, 34%)" opacity="0.93"></circle><circle r="8" cx="902" cy="195" fill="hsl(114, 75%, 34%)" opacity="0.45"></circle><circle r="14.5" cx="22" cy="306" fill="hsl(209, 75%, 34%)" opacity="0.85"></circle><circle r="16" cx="315" cy="216" fill="hsl(180, 75%, 34%)" opacity="0.29"></circle><circle r="22" cx="1130" cy="195" fill="hsl(180, 75%, 34%)" opacity="0.11"></circle><circle r="14.5" cx="346" cy="468" fill="hsl(179, 75%, 34%)" opacity="0.36"></circle><circle r="19.5" cx="605" cy="753" fill="hsl(145, 75%, 34%)" opacity="0.17"></circle><circle r="13" cx="221" cy="331" fill="hsl(191, 75%, 34%)" opacity="0.93"></circle><circle r="10.5" cx="1240" cy="678" fill="hsl(177, 75%, 34%)" opacity="0.80"></circle><circle r="11" cx="1399" cy="274" fill="hsl(118, 75%, 34%)" opacity="0.10"></circle><circle r="13" cx="1041" cy="319" fill="hsl(156, 75%, 34%)" opacity="0.56"></circle><circle r="13.5" cx="573" cy="210" fill="hsl(154, 75%, 34%)" opacity="0.28"></circle><circle r="12" cx="482" cy="597" fill="hsl(167, 75%, 34%)" opacity="0.55"></circle><circle r="16.5" cx="460" cy="704" fill="hsl(169, 75%, 34%)" opacity="0.92"></circle><circle r="12" cx="1276" cy="622" fill="hsl(164, 75%, 34%)" opacity="0.42"></circle><circle r="13" cx="382" cy="208" fill="hsl(175, 75%, 34%)" opacity="0.37"></circle><circle r="18" cx="552" cy="661" fill="hsl(157, 75%, 34%)" opacity="0.37"></circle><circle r="12.5" cx="584" cy="55" fill="hsl(86, 75%, 34%)" opacity="0.42"></circle><circle r="15.5" cx="865" cy="597" fill="hsl(107, 75%, 34%)" opacity="0.32"></circle><circle r="8.5" cx="1258" cy="777" fill="hsl(171, 75%, 34%)" opacity="0.28"></circle><circle r="12" cx="97" cy="506" fill="hsl(204, 75%, 34%)" opacity="0.94"></circle><circle r="14" cx="928" cy="578" fill="hsl(119, 75%, 34%)" opacity="0.60"></circle><circle r="18.5" cx="24" cy="552" fill="hsl(209, 75%, 34%)" opacity="0.34"></circle><circle r="14.5" cx="785" cy="457" fill="hsl(109, 75%, 34%)" opacity="0.54"></circle><circle r="19.5" cx="899" cy="754" fill="hsl(114, 75%, 34%)" opacity="0.72"></circle><circle r="12" cx="1158" cy="509" fill="hsl(184, 75%, 34%)" opacity="0.44"></circle><circle r="17" cx="448" cy="562" fill="hsl(169, 75%, 34%)" opacity="0.46"></circle><circle r="14" cx="21" cy="126" fill="hsl(188, 75%, 34%)" opacity="0.96"></circle><circle r="16.5" cx="641" cy="207" fill="hsl(140, 75%, 34%)" opacity="0.20"></circle><circle r="11" cx="829" cy="124" fill="hsl(72, 75%, 34%)" opacity="0.32"></circle><circle r="9" cx="396" cy="412" fill="hsl(175, 75%, 34%)" opacity="0.28"></circle><circle r="14" cx="377" cy="345" fill="hsl(177, 75%, 34%)" opacity="0.40"></circle><circle r="6.5" cx="645" cy="17" fill="hsl(64, 75%, 34%)" opacity="0.73"></circle><circle r="12" cx="194" cy="735" fill="hsl(194, 75%, 34%)" opacity="0.42"></circle><circle r="11.5" cx="768" cy="596" fill="hsl(112, 75%, 34%)" opacity="0.40"></circle><circle r="19" cx="1274" cy="36" fill="hsl(148, 75%, 34%)" opacity="0.99"></circle><circle r="14.5" cx="410" cy="102" fill="hsl(140, 75%, 34%)" opacity="0.73"></circle><circle r="9" cx="1344" cy="698" fill="hsl(137, 75%, 34%)" opacity="0.37"></circle><circle r="12" cx="57" cy="256" fill="hsl(208, 75%, 34%)" opacity="0.77"></circle><circle r="14.5" cx="1273" cy="373" fill="hsl(164, 75%, 34%)" opacity="0.58"></circle><circle r="12" cx="990" cy="426" fill="hsl(140, 75%, 34%)" opacity="0.96"></circle><circle r="14.5" cx="140" cy="495" fill="hsl(199, 75%, 34%)" opacity="0.63"></circle><circle r="14.5" cx="36" cy="177" fill="hsl(204, 75%, 34%)" opacity="0.16"></circle><circle r="14.5" cx="1351" cy="305" fill="hsl(137, 75%, 34%)" opacity="0.89"></circle><circle r="6.5" cx="608" cy="334" fill="hsl(145, 75%, 34%)" opacity="0.92"></circle><circle r="12" cx="555" cy="165" fill="hsl(145, 75%, 34%)" opacity="0.31"></circle><circle r="11.5" cx="1152" cy="56" fill="hsl(140, 75%, 34%)" opacity="0.98"></circle><circle r="13" cx="218" cy="671" fill="hsl(191, 75%, 34%)" opacity="0.81"></circle><circle r="10.5" cx="1133" cy="673" fill="hsl(183, 75%, 34%)" opacity="0.58"></circle><circle r="13.5" cx="1313" cy="198" fill="hsl(147, 75%, 34%)" opacity="0.97"></circle><circle r="17" cx="281" cy="772" fill="hsl(184, 75%, 34%)" opacity="0.71"></circle><circle r="12" cx="1270" cy="473" fill="hsl(164, 75%, 34%)" opacity="0.74"></circle><circle r="8.5" cx="84" cy="220" fill="hsl(206, 75%, 34%)" opacity="0.50"></circle><circle r="28" cx="1141" cy="277" fill="hsl(183, 75%, 34%)" opacity="0.25"></circle><circle r="14.5" cx="28" cy="50" fill="hsl(156, 75%, 34%)" opacity="0.73"></circle><circle r="13" cx="1292" cy="259" fill="hsl(156, 75%, 34%)" opacity="0.63"></circle><circle r="9" cx="1362" cy="660" fill="hsl(128, 75%, 34%)" opacity="0.80"></circle><circle r="14" cx="1291" cy="140" fill="hsl(152, 75%, 34%)" opacity="0.88"></circle><circle r="16" cx="563" cy="497" fill="hsl(154, 75%, 34%)" opacity="0.40"></circle><circle r="8" cx="886" cy="131" fill="hsl(77, 75%, 34%)" opacity="0.47"></circle><circle r="12" cx="914" cy="241" fill="hsl(119, 75%, 34%)" opacity="0.71"></circle><circle r="8" cx="1354" cy="418" fill="hsl(137, 75%, 34%)" opacity="0.41"></circle><circle r="16.5" cx="222" cy="623" fill="hsl(188, 75%, 34%)" opacity="0.91"></circle><circle r="11" cx="1001" cy="543" fill="hsl(148, 75%, 34%)" opacity="0.71"></circle><circle r="11.5" cx="651" cy="311" fill="hsl(135, 75%, 34%)" opacity="0.85"></circle><circle r="11.5" cx="996" cy="102" fill="hsl(102, 75%, 34%)" opacity="0.79"></circle><circle r="11.5" cx="697" cy="447" fill="hsl(125, 75%, 34%)" opacity="0.70"></circle><circle r="14" cx="404" cy="517" fill="hsl(173, 75%, 34%)" opacity="0.92"></circle><circle r="9.5" cx="871" cy="173" fill="hsl(98, 75%, 34%)" opacity="0.58"></circle><circle r="10.5" cx="623" cy="439" fill="hsl(140, 75%, 34%)" opacity="0.69"></circle><circle r="11" cx="947" cy="434" fill="hsl(125, 75%, 34%)" opacity="0.92"></circle><circle r="11" cx="611" cy="368" fill="hsl(145, 75%, 34%)" opacity="0.80"></circle><circle r="18" cx="675" cy="373" fill="hsl(130, 75%, 34%)" opacity="0.98"></circle><circle r="14.5" cx="1049" cy="617" fill="hsl(164, 75%, 34%)" opacity="0.31"></circle><circle r="13.5" cx="863" cy="493" fill="hsl(107, 75%, 34%)" opacity="0.13"></circle><circle r="9" cx="1014" cy="352" fill="hsl(148, 75%, 34%)" opacity="0.36"></circle><circle r="14" cx="533" cy="569" fill="hsl(157, 75%, 34%)" opacity="0.40"></circle><circle r="7" cx="374" cy="385" fill="hsl(177, 75%, 34%)" opacity="0.36"></circle><circle r="12" cx="258" cy="294" fill="hsl(186, 75%, 34%)" opacity="0.57"></circle><circle r="10" cx="1249" cy="565" fill="hsl(171, 75%, 34%)" opacity="0.41"></circle><circle r="12.5" cx="1191" cy="24" fill="hsl(143, 75%, 34%)" opacity="0.87"></circle><circle r="13" cx="644" cy="264" fill="hsl(140, 75%, 34%)" opacity="0.87"></circle><circle r="17" cx="85" cy="51" fill="hsl(155, 75%, 34%)" opacity="0.46"></circle><circle r="16" cx="306" cy="353" fill="hsl(182, 75%, 34%)" opacity="0.18"></circle><circle r="10" cx="1400" cy="350" fill="hsl(109, 75%, 34%)" opacity="0.61"></circle><circle r="10" cx="227" cy="261" fill="hsl(188, 75%, 34%)" opacity="0.68"></circle><circle r="12.5" cx="347" cy="524" fill="hsl(179, 75%, 34%)" opacity="0.60"></circle><circle r="10.5" cx="590" cy="417" fill="hsl(150, 75%, 34%)" opacity="0.74"></circle><circle r="7.5" cx="1053" cy="133" fill="hsl(145, 75%, 34%)" opacity="0.55"></circle><circle r="10.5" cx="614" cy="532" fill="hsl(145, 75%, 34%)" opacity="0.83"></circle><circle r="6" cx="1409" cy="427" fill="hsl(109, 75%, 34%)" opacity="0.69"></circle><circle r="16" cx="1069" cy="196" fill="hsl(170, 75%, 34%)" opacity="0.57"></circle><circle r="11.5" cx="1356" cy="366" fill="hsl(128, 75%, 34%)" opacity="0.83"></circle><circle r="13.5" cx="586" cy="272" fill="hsl(150, 75%, 34%)" opacity="0.70"></circle><circle r="7.5" cx="227" cy="231" fill="hsl(188, 75%, 34%)" opacity="0.26"></circle><circle r="10.5" cx="606" cy="146" fill="hsl(119, 75%, 34%)" opacity="0.69"></circle><circle r="17.5" cx="1094" cy="428" fill="hsl(176, 75%, 34%)" opacity="0.87"></circle><circle r="15.5" cx="1173" cy="412" fill="hsl(184, 75%, 34%)" opacity="0.67"></circle><circle r="7.5" cx="1253" cy="595" fill="hsl(171, 75%, 34%)" opacity="0.47"></circle><circle r="11.5" cx="734" cy="37" fill="hsl(52, 75%, 34%)" opacity="0.40"></circle><circle r="13.5" cx="387" cy="254" fill="hsl(175, 75%, 34%)" opacity="0.51"></circle><circle r="20.5" cx="489" cy="499" fill="hsl(167, 75%, 34%)" opacity="0.23"></circle><circle r="9" cx="1085" cy="138" fill="hsl(153, 75%, 34%)" opacity="0.55"></circle><circle r="15.5" cx="1191" cy="95" fill="hsl(159, 75%, 34%)" opacity="0.84"></circle><circle r="9" cx="1299" cy="451" fill="hsl(156, 75%, 34%)" opacity="0.53"></circle><circle r="18.5" cx="752" cy="342" fill="hsl(116, 75%, 34%)" opacity="0.29"></circle><circle r="13" cx="1098" cy="480" fill="hsl(176, 75%, 34%)" opacity="0.20"></circle><circle r="24" cx="68" cy="598" fill="hsl(206, 75%, 34%)" opacity="0.50"></circle><circle r="9.5" cx="479" cy="783" fill="hsl(167, 75%, 34%)" opacity="0.62"></circle><circle r="17" cx="469" cy="411" fill="hsl(167, 75%, 34%)" opacity="0.29"></circle><circle r="10.5" cx="1028" cy="24" fill="hsl(100, 75%, 34%)" opacity="0.77"></circle><circle r="14.5" cx="1246" cy="238" fill="hsl(171, 75%, 34%)" opacity="0.69"></circle><circle r="8" cx="820" cy="782" fill="hsl(107, 75%, 34%)" opacity="0.69"></circle><circle r="12" cx="509" cy="360" fill="hsl(164, 75%, 34%)" opacity="0.58"></circle><circle r="8" cx="655" cy="465" fill="hsl(135, 75%, 34%)" opacity="0.92"></circle><circle r="6.5" cx="210" cy="212" fill="hsl(191, 75%, 34%)" opacity="0.62"></circle><circle r="15.5" cx="120" cy="184" fill="hsl(202, 75%, 34%)" opacity="0.69"></circle><circle r="15" cx="860" cy="678" fill="hsl(107, 75%, 34%)" opacity="0.23"></circle><circle r="18" cx="129" cy="648" fill="hsl(202, 75%, 34%)" opacity="1.00"></circle><circle r="13" cx="1080" cy="736" fill="hsl(170, 75%, 34%)" opacity="0.14"></circle><circle r="8" cx="937" cy="111" fill="hsl(86, 75%, 34%)" opacity="0.99"></circle><circle r="13.5" cx="322" cy="417" fill="hsl(180, 75%, 34%)" opacity="0.59"></circle><circle r="23.5" cx="282" cy="585" fill="hsl(184, 75%, 34%)" opacity="0.37"></circle><circle r="14.5" cx="186" cy="493" fill="hsl(194, 75%, 34%)" opacity="0.88"></circle><circle r="13.5" cx="1168" cy="652" fill="hsl(184, 75%, 34%)" opacity="0.19"></circle><circle r="12.5" cx="841" cy="437" fill="hsl(106, 75%, 34%)" opacity="0.36"></circle><circle r="14.5" cx="705" cy="648" fill="hsl(125, 75%, 34%)" opacity="0.38"></circle><circle r="15.5" cx="431" cy="661" fill="hsl(171, 75%, 34%)" opacity="0.16"></circle><circle r="16" cx="295" cy="668" fill="hsl(182, 75%, 34%)" opacity="0.42"></circle><circle r="15" cx="1343" cy="71" fill="hsl(138, 75%, 34%)" opacity="0.15"></circle><circle r="19.5" cx="1052" cy="261" fill="hsl(164, 75%, 34%)" opacity="0.94"></circle><circle r="12" cx="1104" cy="698" fill="hsl(176, 75%, 34%)" opacity="0.34"></circle><circle r="14.5" cx="527" cy="447" fill="hsl(161, 75%, 34%)" opacity="0.98"></circle><circle r="10.5" cx="565" cy="382" fill="hsl(154, 75%, 34%)" opacity="0.61"></circle><circle r="20.5" cx="101" cy="768" fill="hsl(204, 75%, 34%)" opacity="0.11"></circle><circle r="14.5" cx="1262" cy="102" fill="hsl(156, 75%, 34%)" opacity="0.74"></circle><circle r="13.5" cx="1064" cy="517" fill="hsl(164, 75%, 34%)" opacity="0.27"></circle><circle r="14" cx="59" cy="417" fill="hsl(208, 75%, 34%)" opacity="0.33"></circle><circle r="14.5" cx="756" cy="767" fill="hsl(112, 75%, 34%)" opacity="0.82"></circle><circle r="14" cx="548" cy="767" fill="hsl(157, 75%, 34%)" opacity="0.75"></circle><circle r="14" cx="463" cy="319" fill="hsl(169, 75%, 34%)" opacity="0.36"></circle><circle r="19.5" cx="821" cy="366" fill="hsl(107, 75%, 34%)" opacity="0.36"></circle><circle r="21" cx="719" cy="255" fill="hsl(120, 75%, 34%)" opacity="0.45"></circle><circle r="17.5" cx="636" cy="620" fill="hsl(140, 75%, 34%)" opacity="0.20"></circle><circle r="14.5" cx="1128" cy="127" fill="hsl(157, 75%, 34%)" opacity="0.85"></circle><circle r="9" cx="696" cy="571" fill="hsl(125, 75%, 34%)" opacity="0.99"></circle><circle r="7.5" cx="881" cy="90" fill="hsl(68, 75%, 34%)" opacity="0.96"></circle><circle r="10" cx="228" cy="500" fill="hsl(188, 75%, 34%)" opacity="0.24"></circle><circle r="14.5" cx="1322" cy="596" fill="hsl(147, 75%, 34%)" opacity="0.25"></circle><circle r="16" cx="161" cy="769" fill="hsl(196, 75%, 34%)" opacity="0.30"></circle><circle r="20.5" cx="414" cy="765" fill="hsl(173, 75%, 34%)" opacity="0.69"></circle><circle r="10" cx="535" cy="50" fill="hsl(97, 75%, 34%)" opacity="0.86"></circle><circle r="7.5" cx="857" cy="58" fill="hsl(54, 75%, 34%)" opacity="0.29"></circle><circle r="11" cx="280" cy="122" fill="hsl(166, 75%, 34%)" opacity="0.33"></circle><circle r="15.5" cx="1308" cy="661" fill="hsl(156, 75%, 34%)" opacity="0.53"></circle><circle r="16" cx="21" cy="396" fill="hsl(209, 75%, 34%)" opacity="0.57"></circle><circle r="19" cx="351" cy="647" fill="hsl(179, 75%, 34%)" opacity="0.66"></circle><circle r="11.5" cx="919" cy="476" fill="hsl(119, 75%, 34%)" opacity="0.21"></circle><circle r="11" cx="178" cy="575" fill="hsl(194, 75%, 34%)" opacity="0.88"></circle><circle r="17" cx="1201" cy="155" fill="hsl(170, 75%, 34%)" opacity="0.75"></circle><circle r="16" cx="146" cy="30" fill="hsl(142, 75%, 34%)" opacity="0.91"></circle><circle r="10" cx="267" cy="156" fill="hsl(179, 75%, 34%)" opacity="0.85"></circle><circle r="10" cx="1164" cy="757" fill="hsl(184, 75%, 34%)" opacity="0.91"></circle><circle r="13" cx="1378" cy="576" fill="hsl(118, 75%, 34%)" opacity="0.15"></circle><circle r="5.5" cx="832" cy="16" fill="hsl(50, 75%, 34%)" opacity="0.34"></circle><circle r="12.5" cx="1142" cy="725" fill="hsl(183, 75%, 34%)" opacity="0.28"></circle><circle r="13.5" cx="512" cy="311" fill="hsl(161, 75%, 34%)" opacity="0.11"></circle><circle r="13.5" cx="895" cy="405" fill="hsl(114, 75%, 34%)" opacity="0.61"></circle><circle r="15" cx="1087" cy="348" fill="hsl(170, 75%, 34%)" opacity="0.81"></circle><circle r="9.5" cx="955" cy="362" fill="hsl(125, 75%, 34%)" opacity="0.19"></circle><circle r="16.5" cx="377" cy="40" fill="hsl(127, 75%, 34%)" opacity="0.45"></circle><circle r="10" cx="786" cy="95" fill="hsl(64, 75%, 34%)" opacity="0.92"></circle><circle r="10.5" cx="950" cy="206" fill="hsl(125, 75%, 34%)" opacity="0.99"></circle><circle r="9" cx="1285" cy="758" fill="hsl(164, 75%, 34%)" opacity="0.55"></circle><circle r="18" cx="151" cy="367" fill="hsl(199, 75%, 34%)" opacity="0.18"></circle><circle r="8.5" cx="1194" cy="770" fill="hsl(183, 75%, 34%)" opacity="0.20"></circle><circle r="9.5" cx="343" cy="381" fill="hsl(179, 75%, 34%)" opacity="0.29"></circle><circle r="14.5" cx="1008" cy="655" fill="hsl(148, 75%, 34%)" opacity="0.69"></circle><circle r="8.5" cx="490" cy="62" fill="hsl(107, 75%, 34%)" opacity="0.65"></circle><circle r="13.5" cx="1395" cy="55" fill="hsl(130, 75%, 34%)" opacity="0.79"></circle><circle r="17" cx="401" cy="610" fill="hsl(173, 75%, 34%)" opacity="0.20"></circle><circle r="13.5" cx="1146" cy="451" fill="hsl(183, 75%, 34%)" opacity="0.76"></circle><circle r="14.5" cx="503" cy="736" fill="hsl(164, 75%, 34%)" opacity="0.84"></circle><circle r="17" cx="487" cy="201" fill="hsl(167, 75%, 34%)" opacity="0.67"></circle><circle r="15" cx="587" cy="570" fill="hsl(150, 75%, 34%)" opacity="0.57"></circle><circle r="14" cx="1301" cy="327" fill="hsl(156, 75%, 34%)" opacity="0.91"></circle><circle r="14" cx="1264" cy="715" fill="hsl(171, 75%, 34%)" opacity="0.46"></circle><circle r="14.5" cx="254" cy="69" fill="hsl(153, 75%, 34%)" opacity="0.65"></circle><circle r="13" cx="897" cy="349" fill="hsl(114, 75%, 34%)" opacity="0.33"></circle><circle r="13" cx="440" cy="52" fill="hsl(122, 75%, 34%)" opacity="0.70"></circle><circle r="16.5" cx="1201" cy="217" fill="hsl(181, 75%, 34%)" opacity="0.83"></circle><circle r="10.5" cx="1022" cy="149" fill="hsl(128, 75%, 34%)" opacity="0.75"></circle><circle r="12.5" cx="20" cy="249" fill="hsl(209, 75%, 34%)" opacity="0.24"></circle><circle r="8.5" cx="695" cy="73" fill="hsl(68, 75%, 34%)" opacity="0.92"></circle><circle r="25" cx="70" cy="340" fill="hsl(206, 75%, 34%)" opacity="0.44"></circle><circle r="14.5" cx="419" cy="299" fill="hsl(173, 75%, 34%)" opacity="0.58"></circle><circle r="17" cx="120" cy="126" fill="hsl(183, 75%, 34%)" opacity="0.38"></circle><circle r="19.5" cx="1232" cy="297" fill="hsl(177, 75%, 34%)" opacity="0.68"></circle><circle r="15" cx="795" cy="652" fill="hsl(109, 75%, 34%)" opacity="0.17"></circle><circle r="16" cx="215" cy="553" fill="hsl(191, 75%, 34%)" opacity="0.53"></circle><circle r="14" cx="363" cy="161" fill="hsl(170, 75%, 34%)" opacity="0.81"></circle><circle r="13" cx="128" cy="453" fill="hsl(202, 75%, 34%)" opacity="0.73"></circle><circle r="8" cx="1405" cy="188" fill="hsl(109, 75%, 34%)" opacity="0.22"></circle><circle r="19" cx="1139" cy="366" fill="hsl(183, 75%, 34%)" opacity="0.39"></circle><circle r="14" cx="981" cy="273" fill="hsl(140, 75%, 34%)" opacity="0.14"></circle><circle r="14.5" cx="160" cy="611" fill="hsl(196, 75%, 34%)" opacity="0.15"></circle><circle r="17" cx="1003" cy="207" fill="hsl(148, 75%, 34%)" opacity="0.90"></circle><circle r="14" cx="154" cy="232" fill="hsl(199, 75%, 34%)" opacity="0.36"></circle><circle r="17" cx="1032" cy="461" fill="hsl(156, 75%, 34%)" opacity="0.47"></circle><circle r="12" cx="264" cy="503" fill="hsl(186, 75%, 34%)" opacity="0.43"></circle><circle r="18" cx="1139" cy="577" fill="hsl(183, 75%, 34%)" opacity="0.63"></circle><circle r="7.5" cx="283" cy="15" fill="hsl(128, 75%, 34%)" opacity="0.16"></circle><circle r="7" cx="1386" cy="411" fill="hsl(118, 75%, 34%)" opacity="0.54"></circle><circle r="16.5" cx="623" cy="686" fill="hsl(140, 75%, 34%)" opacity="0.49"></circle><circle r="11.5" cx="323" cy="33" fill="hsl(132, 75%, 34%)" opacity="0.22"></circle><circle r="14" cx="350" cy="112" fill="hsl(158, 75%, 34%)" opacity="0.41"></circle><circle r="16" cx="169" cy="697" fill="hsl(196, 75%, 34%)" opacity="0.34"></circle><circle r="6" cx="474" cy="13" fill="hsl(103, 75%, 34%)" opacity="0.66"></circle><circle r="9.5" cx="1322" cy="431" fill="hsl(147, 75%, 34%)" opacity="0.24"></circle><circle r="14" cx="1266" cy="184" fill="hsl(171, 75%, 34%)" opacity="0.74"></circle><circle r="22.5" cx="32" cy="759" fill="hsl(209, 75%, 34%)" opacity="0.58"></circle><circle r="12" cx="275" cy="194" fill="hsl(184, 75%, 34%)" opacity="0.71"></circle><circle r="14" cx="879" cy="294" fill="hsl(110, 75%, 34%)" opacity="0.59"></circle><circle r="12" cx="505" cy="635" fill="hsl(164, 75%, 34%)" opacity="0.95"></circle><circle r="16" cx="417" cy="467" fill="hsl(173, 75%, 34%)" opacity="0.91"></circle><circle r="17" cx="211" cy="134" fill="hsl(180, 75%, 34%)" opacity="0.91"></circle><circle r="15.5" cx="92" cy="280" fill="hsl(204, 75%, 34%)" opacity="0.57"></circle><circle r="9.5" cx="1360" cy="458" fill="hsl(128, 75%, 34%)" opacity="0.45"></circle><circle r="18" cx="174" cy="94" fill="hsl(170, 75%, 34%)" opacity="0.84"></circle><circle r="15" cx="143" cy="290" fill="hsl(199, 75%, 34%)" opacity="0.18"></circle><circle r="12" cx="62" cy="514" fill="hsl(208, 75%, 34%)" opacity="0.72"></circle><circle r="10.5" cx="22" cy="209" fill="hsl(209, 75%, 34%)" opacity="0.19"></circle><circle r="15.5" cx="1059" cy="679" fill="hsl(164, 75%, 34%)" opacity="0.33"></circle><circle r="14" cx="68" cy="137" fill="hsl(194, 75%, 34%)" opacity="0.37"></circle><circle r="8" cx="795" cy="39" fill="hsl(49, 75%, 34%)" opacity="0.54"></circle><circle r="20" cx="682" cy="756" fill="hsl(130, 75%, 34%)" opacity="0.45"></circle><circle r="14.5" cx="119" cy="567" fill="hsl(202, 75%, 34%)" opacity="0.87"></circle><circle r="14" cx="217" cy="777" fill="hsl(191, 75%, 34%)" opacity="0.13"></circle><circle r="14" cx="305" cy="509" fill="hsl(182, 75%, 34%)" opacity="0.32"></circle><circle r="10.5" cx="1341" cy="735" fill="hsl(137, 75%, 34%)" opacity="0.18"></circle><circle r="15.5" cx="736" cy="703" fill="hsl(116, 75%, 34%)" opacity="0.83"></circle><circle r="22" cx="203" cy="429" fill="hsl(191, 75%, 34%)" opacity="0.37"></circle><circle r="10.5" cx="655" cy="138" fill="hsl(109, 75%, 34%)" opacity="0.84"></circle><circle r="19.5" cx="1208" cy="359" fill="hsl(181, 75%, 34%)" opacity="0.17"></circle><circle r="12" cx="1323" cy="774" fill="hsl(147, 75%, 34%)" opacity="0.41"></circle><circle r="13.5" cx="974" cy="773" fill="hsl(132, 75%, 34%)" opacity="0.26"></circle><circle r="11" cx="1365" cy="215" fill="hsl(128, 75%, 34%)" opacity="0.21"></circle><circle r="10.5" cx="1311" cy="394" fill="hsl(147, 75%, 34%)" opacity="0.42"></circle><circle r="16" cx="256" cy="354" fill="hsl(186, 75%, 34%)" opacity="0.26"></circle><circle r="12.5" cx="308" cy="82" fill="hsl(148, 75%, 34%)" opacity="0.19"></circle><circle r="11.5" cx="1112" cy="80" fill="hsl(141, 75%, 34%)" opacity="0.36"></circle><circle r="10" cx="1400" cy="479" fill="hsl(109, 75%, 34%)" opacity="0.87"></circle><circle r="13" cx="734" cy="487" fill="hsl(116, 75%, 34%)" opacity="0.15"></circle><circle r="11.5" cx="1340" cy="254" fill="hsl(137, 75%, 34%)" opacity="0.32"></circle><circle r="12" cx="150" cy="537" fill="hsl(199, 75%, 34%)" opacity="0.83"></circle><circle r="10.5" cx="218" cy="180" fill="hsl(191, 75%, 34%)" opacity="0.98"></circle><circle r="16" cx="1042" cy="401" fill="hsl(156, 75%, 34%)" opacity="0.99"></circle><circle r="10.5" cx="954" cy="314" fill="hsl(125, 75%, 34%)" opacity="0.28"></circle><circle r="14.5" cx="267" cy="404" fill="hsl(184, 75%, 34%)" opacity="0.14"></circle><circle r="17.5" cx="23" cy="474" fill="hsl(209, 75%, 34%)" opacity="0.40"></circle><circle r="15" cx="1197" cy="614" fill="hsl(183, 75%, 34%)" opacity="0.94"></circle><circle r="8.5" cx="925" cy="157" fill="hsl(107, 75%, 34%)" opacity="0.94"></circle><circle r="10.5" cx="984" cy="51" fill="hsl(89, 75%, 34%)" opacity="0.39"></circle><circle r="15" cx="990" cy="718" fill="hsl(140, 75%, 34%)" opacity="0.91"></circle><circle r="13" cx="996" cy="591" fill="hsl(140, 75%, 34%)" opacity="0.96"></circle><circle r="13.5" cx="77" cy="453" fill="hsl(206, 75%, 34%)" opacity="0.66"></circle><circle r="14" cx="989" cy="496" fill="hsl(140, 75%, 34%)" opacity="0.86"></circle><circle r="11.5" cx="1398" cy="712" fill="hsl(118, 75%, 34%)" opacity="0.44"></circle><circle r="15" cx="1251" cy="519" fill="hsl(171, 75%, 34%)" opacity="0.54"></circle><circle r="14" cx="527" cy="124" fill="hsl(127, 75%, 34%)" opacity="0.34"></circle><circle r="14" cx="1037" cy="772" fill="hsl(156, 75%, 34%)" opacity="0.12"></circle><circle r="5.5" cx="919" cy="53" fill="hsl(67, 75%, 34%)" opacity="0.26"></circle><circle r="13" cx="1060" cy="564" fill="hsl(164, 75%, 34%)" opacity="0.15"></circle><circle r="15" cx="1360" cy="150" fill="hsl(129, 75%, 34%)" opacity="0.51"></circle><circle r="22" cx="92" cy="700" fill="hsl(204, 75%, 34%)" opacity="0.41"></circle><circle r="12.5" cx="1344" cy="498" fill="hsl(137, 75%, 34%)" opacity="0.70"></circle><circle r="11.5" cx="1398" cy="636" fill="hsl(118, 75%, 34%)" opacity="0.27"></circle><circle r="12.5" cx="428" cy="385" fill="hsl(171, 75%, 34%)" opacity="0.61"></circle><circle r="7.5" cx="946" cy="20" fill="hsl(69, 75%, 34%)" opacity="0.20"></circle><circle r="9" cx="724" cy="596" fill="hsl(120, 75%, 34%)" opacity="0.30"></circle><circle r="7.5" cx="589" cy="313" fill="hsl(150, 75%, 34%)" opacity="0.93"></circle><circle r="11" cx="1206" cy="465" fill="hsl(181, 75%, 34%)" opacity="0.88"></circle><circle r="16.5" cx="1232" cy="424" fill="hsl(177, 75%, 34%)" opacity="0.66"></circle><circle r="14" cx="817" cy="729" fill="hsl(107, 75%, 34%)" opacity="0.79"></circle><circle r="16.5" cx="299" cy="272" fill="hsl(182, 75%, 34%)" opacity="0.59"></circle><circle r="9" cx="985" cy="384" fill="hsl(140, 75%, 34%)" opacity="0.66"></circle><circle r="13" cx="1391" cy="773" fill="hsl(118, 75%, 34%)" opacity="0.74"></circle><circle r="15.5" cx="217" cy="33" fill="hsl(139, 75%, 34%)" opacity="0.41"></circle><circle r="10.5" cx="1141" cy="781" fill="hsl(183, 75%, 34%)" opacity="0.32"></circle><circle r="10.5" cx="75" cy="191" fill="hsl(206, 75%, 34%)" opacity="0.69"></circle><circle r="12.5" cx="1099" cy="26" fill="hsl(123, 75%, 34%)" opacity="0.14"></circle><circle r="12" cx="1090" cy="779" fill="hsl(176, 75%, 34%)" opacity="0.47"></circle><circle r="11.5" cx="962" cy="647" fill="hsl(132, 75%, 34%)" opacity="0.80"></circle><circle r="6" cx="650" cy="99" fill="hsl(86, 75%, 34%)" opacity="0.20"></circle><circle r="20" cx="728" cy="161" fill="hsl(107, 75%, 34%)" opacity="0.58"></circle><circle r="16" cx="800" cy="545" fill="hsl(107, 75%, 34%)" opacity="0.66"></circle><circle r="11" cx="527" cy="402" fill="hsl(161, 75%, 34%)" opacity="0.73"></circle><circle r="11" cx="677" cy="536" fill="hsl(130, 75%, 34%)" opacity="0.32"></circle><circle r="15" cx="1309" cy="533" fill="hsl(156, 75%, 34%)" opacity="0.35"></circle><circle r="9.5" cx="268" cy="700" fill="hsl(184, 75%, 34%)" opacity="0.81"></circle><circle r="10" cx="1225" cy="773" fill="hsl(177, 75%, 34%)" opacity="0.63"></circle><circle r="14.5" cx="1054" cy="79" fill="hsl(120, 75%, 34%)" opacity="0.40"></circle><circle r="12" cx="242" cy="727" fill="hsl(188, 75%, 34%)" opacity="0.66"></circle></svg>