<svg xmlns="http://www.w3.org/2000/svg" version="1.1" xmlns:xlink="http://www.w3.org/1999/xlink" xmlns:svgjs="http://svgjs.dev/svgjs" viewBox="0 0 800 800"><g fill="none" stroke-width="3" stroke="hsl(335, 77%, 50%)" stroke-linecap="round"><line x1="741" y1="400" x2="59" y2="400" transform="rotate(0, 400, 400)" opacity="0.16"></line><line x1="267.5" y1="400" x2="532.5" y2="400" transform="rotate(4, 400, 400)" opacity="0.41"></line><line x1="672" y1="400" x2="128" y2="400" transform="rotate(8, 400, 400)" opacity="0.76"></line><line x1="716.5" y1="400" x2="83.5" y2="400" transform="rotate(12, 400, 400)" opacity="0.17"></line><line x1="81" y1="400" x2="719" y2="400" transform="rotate(16, 400, 400)" opacity="0.65"></line><line x1="521" y1="400" x2="279" y2="400" transform="rotate(20, 400, 400)" opacity="1.00"></line><line x1="303" y1="400" x2="497" y2="400" transform="rotate(24, 400, 400)" opacity="0.09"></line><line x1="152" y1="400" x2="648" y2="400" transform="rotate(28, 400, 400)" opacity="0.10"></line><line x1="323.5" y1="400" x2="476.5" y2="400" transform="rotate(32, 400, 400)" opacity="0.18"></line><line x1="308.5" y1="400" x2="491.5" y2="400" transform="rotate(36, 400, 400)" opacity="0.97"></line><line x1="191.5" y1="400" x2="608.5" y2="400" transform="rotate(40, 400, 400)" opacity="0.77"></line><line x1="451" y1="400" x2="349" y2="400" transform="rotate(44, 400, 400)" opacity="0.48"></line><line x1="684.5" y1="400" x2="115.5" y2="400" transform="rotate(48, 400, 400)" opacity="0.96"></line><line x1="497" y1="400" x2="303" y2="400" transform="rotate(52, 400, 400)" opacity="0.38"></line><line x1="208" y1="400" x2="592" y2="400" transform="rotate(56, 400, 400)" opacity="0.84"></line><line x1="386.5" y1="400" x2="413.5" y2="400" transform="rotate(60, 400, 400)" opacity="0.41"></line><line x1="727" y1="400" x2="73" y2="400" transform="rotate(64, 400, 400)" opacity="0.28"></line><line x1="122" y1="400" x2="678" y2="400" transform="rotate(68, 400, 400)" opacity="0.93"></line><line x1="74.5" y1="400" x2="725.5" y2="400" transform="rotate(72, 400, 400)" opacity="0.97"></line><line x1="55.5" y1="400" x2="744.5" y2="400" transform="rotate(76, 400, 400)" opacity="0.28"></line><line x1="102.5" y1="400" x2="697.5" y2="400" transform="rotate(80, 400, 400)" opacity="0.71"></line><line x1="32" y1="400" x2="768" y2="400" transform="rotate(84, 400, 400)" opacity="0.23"></line><line x1="655" y1="400" x2="145" y2="400" transform="rotate(88, 400, 400)" opacity="0.81"></line><line x1="734.5" y1="400" x2="65.5" y2="400" transform="rotate(92, 400, 400)" opacity="0.45"></line><line x1="78.5" y1="400" x2="721.5" y2="400" transform="rotate(96, 400, 400)" opacity="0.61"></line><line x1="125.5" y1="400" x2="674.5" y2="400" transform="rotate(100, 400, 400)" opacity="0.78"></line><line x1="138" y1="400" x2="662" y2="400" transform="rotate(104, 400, 400)" opacity="0.73"></line><line x1="681.5" y1="400" x2="118.5" y2="400" transform="rotate(108, 400, 400)" opacity="0.32"></line><line x1="511" y1="400" x2="289" y2="400" transform="rotate(112, 400, 400)" opacity="0.19"></line><line x1="482" y1="400" x2="318" y2="400" transform="rotate(116, 400, 400)" opacity="0.13"></line><line x1="618.5" y1="400" x2="181.5" y2="400" transform="rotate(120, 400, 400)" opacity="0.61"></line><line x1="346" y1="400" x2="454" y2="400" transform="rotate(124, 400, 400)" opacity="0.54"></line><line x1="586.5" y1="400" x2="213.5" y2="400" transform="rotate(128, 400, 400)" opacity="0.51"></line><line x1="626" y1="400" x2="174" y2="400" transform="rotate(132, 400, 400)" opacity="0.21"></line><line x1="560.5" y1="400" x2="239.5" y2="400" transform="rotate(136, 400, 400)" opacity="0.23"></line><line x1="140" y1="400" x2="660" y2="400" transform="rotate(140, 400, 400)" opacity="0.74"></line><line x1="48.5" y1="400" x2="751.5" y2="400" transform="rotate(144, 400, 400)" opacity="0.85"></line><line x1="297" y1="400" x2="503" y2="400" transform="rotate(148, 400, 400)" opacity="0.39"></line><line x1="178.5" y1="400" x2="621.5" y2="400" transform="rotate(152, 400, 400)" opacity="0.85"></line><line x1="43" y1="400" x2="757" y2="400" transform="rotate(156, 400, 400)" opacity="0.99"></line><line x1="370" y1="400" x2="430" y2="400" transform="rotate(160, 400, 400)" opacity="0.57"></line><line x1="217.5" y1="400" x2="582.5" y2="400" transform="rotate(164, 400, 400)" opacity="0.18"></line><line x1="226.5" y1="400" x2="573.5" y2="400" transform="rotate(168, 400, 400)" opacity="0.41"></line><line x1="320" y1="400" x2="480" y2="400" transform="rotate(172, 400, 400)" opacity="0.70"></line><line x1="65.5" y1="400" x2="734.5" y2="400" transform="rotate(176, 400, 400)" opacity="0.33"></line><line x1="55" y1="400" x2="745" y2="400" transform="rotate(180, 400, 400)" opacity="0.10"></line><line x1="559" y1="400" x2="241" y2="400" transform="rotate(184, 400, 400)" opacity="0.63"></line><line x1="736.5" y1="400" x2="63.5" y2="400" transform="rotate(188, 400, 400)" opacity="0.70"></line><line x1="85.5" y1="400" x2="714.5" y2="400" transform="rotate(192, 400, 400)" opacity="0.57"></line><line x1="643.5" y1="400" x2="156.5" y2="400" transform="rotate(196, 400, 400)" opacity="0.87"></line><line x1="185" y1="400" x2="615" y2="400" transform="rotate(200, 400, 400)" opacity="0.78"></line><line x1="404" y1="400" x2="396" y2="400" transform="rotate(204, 400, 400)" opacity="0.19"></line><line x1="332.5" y1="400" x2="467.5" y2="400" transform="rotate(208, 400, 400)" opacity="0.60"></line><line x1="609" y1="400" x2="191" y2="400" transform="rotate(212, 400, 400)" opacity="0.22"></line><line x1="425.5" y1="400" x2="374.5" y2="400" transform="rotate(216, 400, 400)" opacity="0.54"></line><line x1="577.5" y1="400" x2="222.5" y2="400" transform="rotate(220, 400, 400)" opacity="0.66"></line><line x1="369.5" y1="400" x2="430.5" y2="400" transform="rotate(224, 400, 400)" opacity="0.55"></line><line x1="344" y1="400" x2="456" y2="400" transform="rotate(228, 400, 400)" opacity="0.31"></line><line x1="33" y1="400" x2="767" y2="400" transform="rotate(232, 400, 400)" opacity="0.77"></line><line x1="390" y1="400" x2="410" y2="400" transform="rotate(236, 400, 400)" opacity="0.76"></line><line x1="505.5" y1="400" x2="294.5" y2="400" transform="rotate(240, 400, 400)" opacity="0.34"></line><line x1="134.5" y1="400" x2="665.5" y2="400" transform="rotate(244, 400, 400)" opacity="0.62"></line><line x1="144" y1="400" x2="656" y2="400" transform="rotate(248, 400, 400)" opacity="0.29"></line><line x1="363" y1="400" x2="437" y2="400" transform="rotate(252, 400, 400)" opacity="0.69"></line><line x1="32" y1="400" x2="768" y2="400" transform="rotate(256, 400, 400)" opacity="0.22"></line><line x1="575.5" y1="400" x2="224.5" y2="400" transform="rotate(260, 400, 400)" opacity="0.25"></line><line x1="255.5" y1="400" x2="544.5" y2="400" transform="rotate(264, 400, 400)" opacity="0.30"></line><line x1="410.5" y1="400" x2="389.5" y2="400" transform="rotate(268, 400, 400)" opacity="0.72"></line><line x1="626" y1="400" x2="174" y2="400" transform="rotate(272, 400, 400)" opacity="0.18"></line><line x1="430" y1="400" x2="370" y2="400" transform="rotate(276, 400, 400)" opacity="0.71"></line><line x1="440" y1="400" x2="360" y2="400" transform="rotate(280, 400, 400)" opacity="0.27"></line><line x1="674" y1="400" x2="126" y2="400" transform="rotate(284, 400, 400)" opacity="0.64"></line><line x1="142.5" y1="400" x2="657.5" y2="400" transform="rotate(288, 400, 400)" opacity="0.10"></line><line x1="469.5" y1="400" x2="330.5" y2="400" transform="rotate(292, 400, 400)" opacity="0.73"></line><line x1="39" y1="400" x2="761" y2="400" transform="rotate(296, 400, 400)" opacity="0.13"></line><line x1="60" y1="400" x2="740" y2="400" transform="rotate(300, 400, 400)" opacity="0.34"></line><line x1="584.5" y1="400" x2="215.5" y2="400" transform="rotate(304, 400, 400)" opacity="0.39"></line><line x1="463" y1="400" x2="337" y2="400" transform="rotate(308, 400, 400)" opacity="0.76"></line><line x1="326.5" y1="400" x2="473.5" y2="400" transform="rotate(312, 400, 400)" opacity="0.54"></line><line x1="486.5" y1="400" x2="313.5" y2="400" transform="rotate(316, 400, 400)" opacity="0.30"></line><line x1="188" y1="400" x2="612" y2="400" transform="rotate(320, 400, 400)" opacity="0.66"></line><line x1="306.5" y1="400" x2="493.5" y2="400" transform="rotate(324, 400, 400)" opacity="0.43"></line><line x1="161" y1="400" x2="639" y2="400" transform="rotate(328, 400, 400)" opacity="0.93"></line><line x1="415.5" y1="400" x2="384.5" y2="400" transform="rotate(332, 400, 400)" opacity="0.66"></line><line x1="58.5" y1="400" x2="741.5" y2="400" transform="rotate(336, 400, 400)" opacity="0.25"></line><line x1="274" y1="400" x2="526" y2="400" transform="rotate(340, 400, 400)" opacity="0.25"></line><line x1="556.5" y1="400" x2="243.5" y2="400" transform="rotate(344, 400, 400)" opacity="0.34"></line><line x1="712" y1="400" x2="88" y2="400" transform="rotate(348, 400, 400)" opacity="0.42"></line></g></svg>