<svg xmlns="http://www.w3.org/2000/svg" version="1.1" xmlns:xlink="http://www.w3.org/1999/xlink" xmlns:svgjs="http://svgjs.dev/svgjs" viewBox="0 0 800 800" opacity="0.52"><g fill="none" stroke-width="3" stroke="hsl(190, 100%, 70%)" stroke-linecap="round" transform="matrix(0.9,0,0,0.9,40,39.999999237060536)"><line x1="678" y1="400" x2="122" y2="400" transform="rotate(0, 400, 400)" opacity="0.30"></line><line x1="509" y1="400" x2="291" y2="400" transform="rotate(4, 400, 400)" opacity="0.66"></line><line x1="399" y1="400" x2="401" y2="400" transform="rotate(8, 400, 400)" opacity="0.41"></line><line x1="136.5" y1="400" x2="663.5" y2="400" transform="rotate(12, 400, 400)" opacity="0.77"></line><line x1="636" y1="400" x2="164" y2="400" transform="rotate(16, 400, 400)" opacity="0.70"></line><line x1="423" y1="400" x2="377" y2="400" transform="rotate(20, 400, 400)" opacity="0.80"></line><line x1="374.5" y1="400" x2="425.5" y2="400" transform="rotate(24, 400, 400)" opacity="0.24"></line><line x1="103" y1="400" x2="697" y2="400" transform="rotate(28, 400, 400)" opacity="0.12"></line><line x1="549" y1="400" x2="251" y2="400" transform="rotate(32, 400, 400)" opacity="0.18"></line><line x1="670.5" y1="400" x2="129.5" y2="400" transform="rotate(36, 400, 400)" opacity="0.62"></line><line x1="276.5" y1="400" x2="523.5" y2="400" transform="rotate(40, 400, 400)" opacity="0.48"></line><line x1="94.5" y1="400" x2="705.5" y2="400" transform="rotate(44, 400, 400)" opacity="0.47"></line><line x1="514" y1="400" x2="286" y2="400" transform="rotate(48, 400, 400)" opacity="1.00"></line><line x1="570.5" y1="400" x2="229.5" y2="400" transform="rotate(52, 400, 400)" opacity="0.58"></line><line x1="538" y1="400" x2="262" y2="400" transform="rotate(56, 400, 400)" opacity="0.65"></line><line x1="226.5" y1="400" x2="573.5" y2="400" transform="rotate(60, 400, 400)" opacity="0.33"></line><line x1="671" y1="400" x2="129" y2="400" transform="rotate(64, 400, 400)" opacity="0.20"></line><line x1="70" y1="400" x2="730" y2="400" transform="rotate(68, 400, 400)" opacity="0.95"></line><line x1="530.5" y1="400" x2="269.5" y2="400" transform="rotate(72, 400, 400)" opacity="0.25"></line><line x1="602.5" y1="400" x2="197.5" y2="400" transform="rotate(76, 400, 400)" opacity="0.38"></line><line x1="617.5" y1="400" x2="182.5" y2="400" transform="rotate(80, 400, 400)" opacity="0.25"></line><line x1="193" y1="400" x2="607" y2="400" transform="rotate(84, 400, 400)" opacity="0.30"></line><line x1="637.5" y1="400" x2="162.5" y2="400" transform="rotate(88, 400, 400)" opacity="0.97"></line><line x1="402.5" y1="400" x2="397.5" y2="400" transform="rotate(92, 400, 400)" opacity="0.95"></line><line x1="219" y1="400" x2="581" y2="400" transform="rotate(96, 400, 400)" opacity="0.80"></line><line x1="27.5" y1="400" x2="772.5" y2="400" transform="rotate(100, 400, 400)" opacity="0.16"></line><line x1="695.5" y1="400" x2="104.5" y2="400" transform="rotate(104, 400, 400)" opacity="0.26"></line><line x1="104" y1="400" x2="696" y2="400" transform="rotate(108, 400, 400)" opacity="0.72"></line><line x1="445" y1="400" x2="355" y2="400" transform="rotate(112, 400, 400)" opacity="0.48"></line><line x1="537" y1="400" x2="263" y2="400" transform="rotate(116, 400, 400)" opacity="0.68"></line><line x1="608.5" y1="400" x2="191.5" y2="400" transform="rotate(120, 400, 400)" opacity="0.07"></line><line x1="543" y1="400" x2="257" y2="400" transform="rotate(124, 400, 400)" opacity="0.21"></line><line x1="705" y1="400" x2="95" y2="400" transform="rotate(128, 400, 400)" opacity="0.15"></line><line x1="381" y1="400" x2="419" y2="400" transform="rotate(132, 400, 400)" opacity="0.88"></line><line x1="743" y1="400" x2="57" y2="400" transform="rotate(136, 400, 400)" opacity="0.34"></line><line x1="540" y1="400" x2="260" y2="400" transform="rotate(140, 400, 400)" opacity="0.21"></line><line x1="453.5" y1="400" x2="346.5" y2="400" transform="rotate(144, 400, 400)" opacity="0.47"></line><line x1="670" y1="400" x2="130" y2="400" transform="rotate(148, 400, 400)" opacity="0.42"></line><line x1="107.5" y1="400" x2="692.5" y2="400" transform="rotate(152, 400, 400)" opacity="0.80"></line><line x1="71" y1="400" x2="729" y2="400" transform="rotate(156, 400, 400)" opacity="0.27"></line><line x1="196.5" y1="400" x2="603.5" y2="400" transform="rotate(160, 400, 400)" opacity="0.85"></line><line x1="715" y1="400" x2="85" y2="400" transform="rotate(164, 400, 400)" opacity="0.79"></line><line x1="226.5" y1="400" x2="573.5" y2="400" transform="rotate(168, 400, 400)" opacity="0.41"></line><line x1="310.5" y1="400" x2="489.5" y2="400" transform="rotate(172, 400, 400)" opacity="0.53"></line><line x1="669" y1="400" x2="131" y2="400" transform="rotate(176, 400, 400)" opacity="0.84"></line><line x1="719.5" y1="400" x2="80.5" y2="400" transform="rotate(180, 400, 400)" opacity="0.71"></line><line x1="442.5" y1="400" x2="357.5" y2="400" transform="rotate(184, 400, 400)" opacity="0.18"></line><line x1="344.5" y1="400" x2="455.5" y2="400" transform="rotate(188, 400, 400)" opacity="0.11"></line><line x1="652.5" y1="400" x2="147.5" y2="400" transform="rotate(192, 400, 400)" opacity="0.41"></line><line x1="155" y1="400" x2="645" y2="400" transform="rotate(196, 400, 400)" opacity="0.82"></line><line x1="609" y1="400" x2="191" y2="400" transform="rotate(200, 400, 400)" opacity="0.86"></line><line x1="213.5" y1="400" x2="586.5" y2="400" transform="rotate(204, 400, 400)" opacity="0.40"></line><line x1="376.5" y1="400" x2="423.5" y2="400" transform="rotate(208, 400, 400)" opacity="0.19"></line><line x1="232.5" y1="400" x2="567.5" y2="400" transform="rotate(212, 400, 400)" opacity="0.33"></line><line x1="166" y1="400" x2="634" y2="400" transform="rotate(216, 400, 400)" opacity="0.76"></line><line x1="165.5" y1="400" x2="634.5" y2="400" transform="rotate(220, 400, 400)" opacity="0.78"></line><line x1="484" y1="400" x2="316" y2="400" transform="rotate(224, 400, 400)" opacity="0.78"></line><line x1="357" y1="400" x2="443" y2="400" transform="rotate(228, 400, 400)" opacity="0.74"></line><line x1="184.5" y1="400" x2="615.5" y2="400" transform="rotate(232, 400, 400)" opacity="0.48"></line><line x1="380.5" y1="400" x2="419.5" y2="400" transform="rotate(236, 400, 400)" opacity="0.58"></line><line x1="556" y1="400" x2="244" y2="400" transform="rotate(240, 400, 400)" opacity="0.41"></line><line x1="603" y1="400" x2="197" y2="400" transform="rotate(244, 400, 400)" opacity="0.39"></line><line x1="33" y1="400" x2="767" y2="400" transform="rotate(248, 400, 400)" opacity="0.62"></line><line x1="728.5" y1="400" x2="71.5" y2="400" transform="rotate(252, 400, 400)" opacity="0.47"></line><line x1="239" y1="400" x2="561" y2="400" transform="rotate(256, 400, 400)" opacity="0.79"></line><line x1="157" y1="400" x2="643" y2="400" transform="rotate(260, 400, 400)" opacity="0.83"></line><line x1="149.5" y1="400" x2="650.5" y2="400" transform="rotate(264, 400, 400)" opacity="0.66"></line><line x1="742" y1="400" x2="58" y2="400" transform="rotate(268, 400, 400)" opacity="0.13"></line><line x1="494" y1="400" x2="306" y2="400" transform="rotate(272, 400, 400)" opacity="0.09"></line><line x1="91.5" y1="400" x2="708.5" y2="400" transform="rotate(276, 400, 400)" opacity="0.59"></line><line x1="553" y1="400" x2="247" y2="400" transform="rotate(280, 400, 400)" opacity="0.95"></line><line x1="508" y1="400" x2="292" y2="400" transform="rotate(284, 400, 400)" opacity="0.57"></line><line x1="547.5" y1="400" x2="252.5" y2="400" transform="rotate(288, 400, 400)" opacity="0.99"></line><line x1="731.5" y1="400" x2="68.5" y2="400" transform="rotate(292, 400, 400)" opacity="0.45"></line><line x1="661" y1="400" x2="139" y2="400" transform="rotate(296, 400, 400)" opacity="0.56"></line><line x1="196.5" y1="400" x2="603.5" y2="400" transform="rotate(300, 400, 400)" opacity="0.95"></line><line x1="208.5" y1="400" x2="591.5" y2="400" transform="rotate(304, 400, 400)" opacity="0.78"></line><line x1="323.5" y1="400" x2="476.5" y2="400" transform="rotate(308, 400, 400)" opacity="0.23"></line><line x1="471.5" y1="400" x2="328.5" y2="400" transform="rotate(312, 400, 400)" opacity="0.79"></line><line x1="313" y1="400" x2="487" y2="400" transform="rotate(316, 400, 400)" opacity="0.72"></line><line x1="576.5" y1="400" x2="223.5" y2="400" transform="rotate(320, 400, 400)" opacity="0.16"></line><line x1="92" y1="400" x2="708" y2="400" transform="rotate(324, 400, 400)" opacity="0.99"></line><line x1="633.5" y1="400" x2="166.5" y2="400" transform="rotate(328, 400, 400)" opacity="0.94"></line><line x1="208.5" y1="400" x2="591.5" y2="400" transform="rotate(332, 400, 400)" opacity="0.13"></line><line x1="510.5" y1="400" x2="289.5" y2="400" transform="rotate(336, 400, 400)" opacity="0.15"></line><line x1="583.5" y1="400" x2="216.5" y2="400" transform="rotate(340, 400, 400)" opacity="0.15"></line><line x1="312" y1="400" x2="488" y2="400" transform="rotate(344, 400, 400)" opacity="0.67"></line><line x1="183.5" y1="400" x2="616.5" y2="400" transform="rotate(348, 400, 400)" opacity="0.80"></line></g></svg>