<svg xmlns="http://www.w3.org/2000/svg" version="1.1" xmlns:xlink="http://www.w3.org/1999/xlink" xmlns:svgjs="http://svgjs.dev/svgjs" viewBox="0 0 800 800"><defs><linearGradient x1="50%" y1="0%" x2="50%" y2="100%" id="vvvortex-grad"><stop stop-color="hsl(180, 69%, 40%)" stop-opacity="1" offset="0%"></stop><stop stop-color="hsl(137, 73%, 59%)" stop-opacity="1" offset="100%"></stop></linearGradient></defs><g stroke="url(#vvvortex-grad)" fill="none" stroke-linecap="square"><circle r="363" cx="400" cy="400" stroke-width="11" stroke-dasharray="37 26" stroke-dashoffset="25" transform="rotate(83, 400, 400)" opacity="1.00"></circle><circle r="346.5" cx="400" cy="400" stroke-width="11" stroke-dasharray="30 24" stroke-dashoffset="25" transform="rotate(177, 400, 400)" opacity="0.95"></circle><circle r="330" cx="400" cy="400" stroke-width="10" stroke-dasharray="31 45" stroke-dashoffset="25" transform="rotate(290, 400, 400)" opacity="0.91"></circle><circle r="313.5" cx="400" cy="400" stroke-width="10" stroke-dasharray="13 40" stroke-dashoffset="25" transform="rotate(115, 400, 400)" opacity="0.86"></circle><circle r="297" cx="400" cy="400" stroke-width="10" stroke-dasharray="53 43" stroke-dashoffset="25" transform="rotate(205, 400, 400)" opacity="0.82"></circle><circle r="280.5" cx="400" cy="400" stroke-width="10" stroke-dasharray="27 18" stroke-dashoffset="25" transform="rotate(176, 400, 400)" opacity="0.77"></circle><circle r="264" cx="400" cy="400" stroke-width="9" stroke-dasharray="54 41" stroke-dashoffset="25" transform="rotate(256, 400, 400)" opacity="0.73"></circle><circle r="247.5" cx="400" cy="400" stroke-width="9" stroke-dasharray="40 28" stroke-dashoffset="25" transform="rotate(235, 400, 400)" opacity="0.68"></circle><circle r="231" cx="400" cy="400" stroke-width="9" stroke-dasharray="11 33" stroke-dashoffset="25" transform="rotate(199, 400, 400)" opacity="0.64"></circle><circle r="214.5" cx="400" cy="400" stroke-width="8" stroke-dasharray="48 16" stroke-dashoffset="25" transform="rotate(67, 400, 400)" opacity="0.59"></circle><circle r="198" cx="400" cy="400" stroke-width="8" stroke-dasharray="47 36" stroke-dashoffset="25" transform="rotate(307, 400, 400)" opacity="0.55"></circle><circle r="181.5" cx="400" cy="400" stroke-width="8" stroke-dasharray="42 53" stroke-dashoffset="25" transform="rotate(214, 400, 400)" opacity="0.50"></circle><circle r="165" cx="400" cy="400" stroke-width="8" stroke-dasharray="54 35" stroke-dashoffset="25" transform="rotate(33, 400, 400)" opacity="0.46"></circle><circle r="148.5" cx="400" cy="400" stroke-width="7" stroke-dasharray="49 19" stroke-dashoffset="25" transform="rotate(116, 400, 400)" opacity="0.41"></circle><circle r="132" cx="400" cy="400" stroke-width="7" stroke-dasharray="44 34" stroke-dashoffset="25" transform="rotate(66, 400, 400)" opacity="0.37"></circle><circle r="115.5" cx="400" cy="400" stroke-width="7" stroke-dasharray="35 51" stroke-dashoffset="25" transform="rotate(25, 400, 400)" opacity="0.32"></circle><circle r="99" cx="400" cy="400" stroke-width="6" stroke-dasharray="26 16" stroke-dashoffset="25" transform="rotate(20, 400, 400)" opacity="0.28"></circle><circle r="82.5" cx="400" cy="400" stroke-width="6" stroke-dasharray="25 31" stroke-dashoffset="25" transform="rotate(177, 400, 400)" opacity="0.23"></circle><circle r="66" cx="400" cy="400" stroke-width="6" stroke-dasharray="22 12" stroke-dashoffset="25" transform="rotate(280, 400, 400)" opacity="0.19"></circle><circle r="49.5" cx="400" cy="400" stroke-width="6" stroke-dasharray="11 35" stroke-dashoffset="25" transform="rotate(99, 400, 400)" opacity="0.14"></circle><circle r="33" cx="400" cy="400" stroke-width="5" stroke-dasharray="19 27" stroke-dashoffset="25" transform="rotate(310, 400, 400)" opacity="0.10"></circle><circle r="16.5" cx="400" cy="400" stroke-width="5" stroke-dasharray="13 28" stroke-dashoffset="25" transform="rotate(256, 400, 400)" opacity="0.05"></circle></g></svg>